<svg width="16" height="16" xmlns="http://www.w3.org/2000/svg"><defs><filter id="a"><feColorMatrix in="SourceGraphic" values="0 0 0 0 1.000000 0 0 0 0 1.000000 0 0 0 0 1.000000 0 0 0 1.000000 0"/></filter></defs><g filter="url(#a)" fill="none" opacity=".65"><path d="M8 2.082c1.32 0 2.4 1.08 2.4 2.4v2.64c0 1.32-1.08 2.4-2.4 2.4-1.32 0-2.4-1.08-2.4-2.4v-2.64c0-1.32 1.08-2.4 2.4-2.4m0-1.08c-1.92 0-3.48 1.56-3.48 3.48v2.64c0 1.92 1.56 3.48 3.48 3.48s3.48-1.56 3.48-3.48v-2.64c0-1.92-1.56-3.48-3.48-3.48z" fill="#666"/><path d="M13.832 7.258a.528.528 0 10-1.056 0c0 2.472-2.144 4.488-4.776 4.488-2.632 0-4.776-2.016-4.776-4.488a.527.527 0 10-1.056 0c0 2.884 2.318 5.258 5.28 5.526v1.7c0 .28.246.514.56.514.314 0 .56-.234.56-.514v-1.7c2.961-.268 5.279-2.642 5.264-5.526z" fill="#666"/></g></svg>