<svg width="16" height="16" xmlns="http://www.w3.org/2000/svg"><defs><filter id="a"><feColorMatrix in="SourceGraphic" values="0 0 0 0 1.000000 0 0 0 0 1.000000 0 0 0 0 1.000000 0 0 0 1.000000 0"/></filter></defs><g transform="translate(-24)" filter="url(#a)" fill="none" fill-rule="evenodd" opacity=".65"><g fill="#000" fill-rule="nonzero"><path d="M14 3.6h-1.9l-.15-.6a1.5 1.5 0 00-1.45-1.15h-5c-.7.05-1.3.5-1.45 1.15l-.15.6H2c-.85 0-1.5.65-1.5 1.5v7.5c0 .85.65 1.5 1.5 1.5h12c.85 0 1.5-.65 1.5-1.5V5.1c0-.8-.65-1.5-1.5-1.5zm.5 9c0 .3-.2.5-.5.5H2c-.3 0-.5-.2-.5-.5V5.1c0-.3.2-.5.5-.5h2.3c.25 0 .45-.15.5-.4l.25-1c.05-.2.25-.4.5-.4h5c.25 0 .45.15.5.4l.25 1c.05.2.25.4.5.4H14c.3 0 .5.2.5.5v7.5z" transform="translate(24)"/><path d="M8 5.6c-1.65 0-3 1.35-3 3s1.35 3 3 3 3-1.35 3-3-1.35-3-3-3zm0 5c-1.1 0-2-.9-2-2s.9-2 2-2 2 .9 2 2-.9 2-2 2zm4.5-4.85H12c-.3 0-.5.2-.5.5s.2.5.5.5h.5c.3 0 .5-.2.5-.5s-.2-.5-.5-.5z" transform="translate(24)"/></g></g></svg>