<?xml version="1.0" standalone="no"?><!DOCTYPE svg PUBLIC "-//W3C//DTD SVG 1.1//EN" "http://www.w3.org/Graphics/SVG/1.1/DTD/svg11.dtd"><svg t="1647933944425" class="icon" viewBox="0 0 1024 1024" version="1.1" xmlns="http://www.w3.org/2000/svg" p-id="6370" xmlns:xlink="http://www.w3.org/1999/xlink" width="200" height="200"><defs><style type="text/css">@font-face { font-family: feedback-iconfont; src: url("//at.alicdn.com/t/font_1031158_u69w8yhxdu.woff2?t=1630033759944") format("woff2"), url("//at.alicdn.com/t/font_1031158_u69w8yhxdu.woff?t=1630033759944") format("woff"), url("//at.alicdn.com/t/font_1031158_u69w8yhxdu.ttf?t=1630033759944") format("truetype"); }
</style></defs><path d="M872 912.0064c13.2544 0 24 10.7456 24 24 0 13.256-10.7456 24-24 24H152c-13.2544 0-24-10.744-24-24 0-13.2544 10.7456-24 24-24h720zM555.904 81.7616l0.744 0.7328 333.2304 333.2288c9.3728 9.3728 9.3728 24.5696 0 33.9424-9.2352 9.2336-24.1232 9.3696-33.5248 0.4064l-0.416-0.4064L537.6 131.328v676.6784c0 13.256-10.7456 24-24 24-13.2544 0-24-10.744-24-24V128.128L168.064 449.6656c-9.3728 9.3728-24.5696 9.3728-33.9424 0-9.2336-9.2352-9.3696-24.1232-0.4064-33.5248l0.4064-0.416 333.232-333.232c24.4112-24.4112 63.8384-24.656 88.5488-0.7312z" fill="#1296db" p-id="6371"></path></svg>